#!OML:ASF F:\VICON\USERDATA\INSTALL\rory3\rory3.ASF
:FULLY-SPECIFIED
:DEGREES
11
root 0.9307560000000001 17.8476 -10.154000000000048 -2.42101 -5.6284900000000055 -3.142290000000001
lfemur -23.15659999999998 -4.247869999999999 -18.6781
ltibia 26.8657
lfoot -0.8894609999999927 -3.0670599999999997
ltoes -3.12618
rfemur 5.914899999999978 3.20693 27.321800000000003
rtibia 46.815299999999986
rfoot 7.191800000000022 6.355909999999978
rtoes 2.7392399999999992
lowerback nan 2.2754799999999964 3.702309999999997
upperback 0.11406299999999998 3.541040000000007 0.7839100000000014
thorax -5.84718 1.6443700000000003 -1.8137700000000028
lowerneck -15.5922 -3.7181700000000015 -1.3623500000000006
upperneck 22.0097 -4.83478 -0.045594099999998305
head 9.56177 -2.367399999999999 -0.40450200000000025
lclavicle -1.291170000000003e-14 2.002759999999999e-14
lhumerus -38.8673 13.252199999999993 76.6576
lradius 18.101299999999988
lwrist -2.1524699999999886
lhand -25.502600000000008 20.8022
lfingers nan
lthumb 1.0261799999999983 50.7795
rclavicle -1.291170000000003e-14 2.002759999999999e-14
rhumerus -23.127000000000002 -13.957699999999994 -81.7064
rradius 31.750199999999985
rwrist -0.06446980000000124
rhand -19.7608 nan
rfingers nan
rthumb 6.570750000000003 -6.980999999999999
12
root 0.9867989999999992 17.9153 -9.34430000000006 -2.996599999999999 -6.335539999999995 -2.2343999999999995
lfemur -20.7269 -3.7596399999999948 -20.65
ltibia 29.387000000000004
lfoot -3.733429999999999 -1.2767400000000035
ltoes 0.620179000000002
rfemur 0.26219599999998877 3.3868599999999995 25.1156
rtibia 56.398700000000005
rfoot 21.068999999999967 6.06076000000003
rtoes 7.192539999999997
lowerback nan 2.452449999999996 3.125350000000001
upperback 0.08995769999999999 3.706369999999997 0.6447500000000006
thorax -6.045210000000001 1.7351700000000028 -1.6775799999999996
lowerneck -15.7159 -3.4892900000000004 -1.166570000000001
upperneck 22.5636 -4.4684099999999995 -0.46579599999999943
head 9.76208 -2.2259300000000004 -0.5452220000000004
lclavicle -1.8999500000000034e-14 4.17447999999999e-15
lhumerus -38.9138 12.453899999999997 77.2198
lradius 19.95219999999999
lwrist -0.4535270000000038
lhand -24.68659999999999 19.7093
lfingers nan
lthumb 1.8142199999999966 49.6813
rclavicle -1.8999500000000034e-14 4.17447999999999e-15
rhumerus -24.382200000000005 -15.175899999999999 -81.2951
rradius 30.496600000000004
rwrist 0.5599639999999941
rhand -18.75 nan
rfingers nan
rthumb 7.546480000000002 -6.45903
13
root 1.005899999999999 17.9525 -8.58212999999998 -3.5884199999999984 -6.784490000000005 -0.7819429999999994
lfemur -17.49049999999999 -4.746930000000006 -22.770999999999997
ltibia 29.025199999999998
lfoot -4.858619999999998 0.8697379999999928
ltoes 8.048630000000012
rfemur -5.908239999999998 3.00008 22.791599999999995
rtibia 65.73969999999997
rfoot 19.56619999999998 2.5877599999999923
rtoes 12.956299999999986
lowerback nan 2.5257600000000004 1.77717
upperback 0.3998189999999993 3.608550000000002 0.37193499999999957
thorax -5.866350000000001 1.7273299999999976 -1.1921400000000013
lowerneck -16.2356 -3.2077199999999997 -1.155090000000001
upperneck 22.786499999999997 -4.06851 -0.48020799999999864
head 9.93771 -2.0384599999999997 -0.5133329999999994
lclavicle -5.050370000000002e-15 2.4848100000000054e-15
lhumerus -37.5492 10.228500000000007 78.5697
lradius 21.2182
lwrist 3.0678599999999983
lhand -25.322499999999994 18.4459
lfingers nan
lthumb 1.2001200000000036 48.4223
rclavicle -5.050370000000002e-15 2.4848100000000054e-15
rhumerus -24.399699999999996 -15.857399999999998 -81.3062
rradius 28.598799999999997
rwrist 1.704979999999996
rhand -18.4527 nan
rfingers nan
rthumb 7.83337 -5.6635300000000015
14
root 1.0036400000000003 17.9931 -7.85326000000005 -4.08757 -5.927439999999994 -0.10566799999999588
lfemur -14.433699999999995 -5.131139999999997 -24.309300000000007
ltibia 29.633
lfoot -7.697420000000003 2.215699999999994
ltoes -1.6875000000000022
rfemur -11.255 0.7823579999999963 21.594499999999996
rtibia 71.85650000000007
rfoot 9.145489999999997 -1.4730599999999905
rtoes 7.200389999999995
lowerback nan 2.069780000000002 1.0618099999999997
upperback 0.3872100000000003 2.914960000000005 0.3722310000000001
thorax -6.132380000000001 1.4031800000000008 -0.6956420000000001
lowerneck -16.0723 -2.9359 -1.2779900000000015
upperneck 22.936100000000003 -3.6559 -0.4909929999999987
head 9.96177 -1.86045 -0.44103800000000115
lclavicle -7.622149999999998e-15 8.945310000000003e-15
lhumerus -36.27499999999999 9.960720000000006 78.65
lradius 21.869800000000005
lwrist 3.3446699999999963
lhand -25.622000000000003 20.5492
lfingers nan
lthumb 0.9107819999999998 50.527
rclavicle -7.622149999999998e-15 8.945310000000003e-15
rhumerus -24.9289 -17.913 -80.6781
rradius 26.2991
rwrist 4.886060000000001
rhand -17.8695 nan
rfingers nan
rthumb 8.39627 -4.910869999999996
15
root 0.9946469999999994 18.0286 -7.130559999999962 -4.509949999999996 -5.247400000000004 0.4787320000000004
lfemur -10.7224 -4.864130000000001 -25.5213
ltibia 28.653100000000002
lfoot -9.727889999999997 2.1932299999999927
ltoes -1.3459099999999975
rfemur -16.099999999999998 -0.39135299999999473 20.664500000000004
rtibia 74.63339999999997
rfoot 3.797070000000023 -4.838239999999998
rtoes 10.244499999999999
lowerback nan 1.6079299999999987 0.5092799999999988
upperback 0.636166 2.2273700000000014 0.4278460000000013
thorax -5.83494 1.085030000000001 -0.20381699999999903
lowerneck -16.0923 -2.77307 -1.0955100000000009
upperneck 23.1146 -3.3199500000000004 -1.1128100000000005
head 10.012699999999999 -1.76296 -0.6471320000000004
lclavicle -2.3077699999999967e-14 1.9878500000000151e-16
lhumerus -34.6413 9.033610000000008 79.1068
lradius 22.852799999999995
lwrist 3.6683299999999965
lhand -25.855000000000004 20.2247
lfingers nan
lthumb 0.6857909999999952 50.2033
rclavicle -2.3077699999999967e-14 1.9878500000000151e-16
rhumerus -25.492900000000006 -20.0094 -80.1946
rradius 25.4919
rwrist 6.436849999999996
rhand -16.189799999999998 nan
rfingers nan
rthumb 10.017099999999997 -18.072799999999987
